<svg width="223" height="23" viewBox="0 0 223 23" fill="none" xmlns="http://www.w3.org/2000/svg">
  <g filter="url(#filter0_i_57_3)">
    <path d="M0.9335 23L0.9335 0.919998L6.9495 0.919998L14.2775 13.72L14.2775 0.919998L19.8455 0.919998L19.8455 23H13.8615L6.5015 10.2L6.5015 23H0.9335ZM114.364 17.368V6.552C114.364 2.79733 116.241 0.919998 119.996 0.919998L129.02 0.919998L131.516 2.84V5.944L120.284 5.944C120.049 5.944 119.932 6.06133 119.932 6.296V17.624C119.932 17.8587 120.049 17.976 120.284 17.976H126.588V14.264H122.972V9.24L132.156 9.24V23H119.996C116.241 23 114.364 21.1227 114.364 17.368Z" fill="#FA162F" fill-opacity="0.8"/>
    <path d="M24.8398 23L24.8398 0.919998L40.2958 0.919998V5.944L30.4078 5.944V9.24L39.3358 9.24V14.264L30.4078 14.264L30.4078 17.976L40.2958 17.976V23L24.8398 23ZM42.7703 21.912L49.4903 11.64L43.1863 2.008L43.6983 0.919998L48.5943 0.919998L52.5303 7.16L56.4663 0.919998H61.3623L61.8743 2.008L55.5703 11.64L62.2903 21.912L61.7463 23H56.8823L52.5303 16.152L48.1783 23H43.3143L42.7703 21.912ZM65.4603 17.368V0.919998L71.0283 0.919998V17.624C71.0283 17.8587 71.1456 17.976 71.3802 17.976L77.3323 17.976C77.5669 17.976 77.6843 17.8587 77.6843 17.624V0.919998L83.2523 0.919998V17.368C83.2523 21.1227 81.3749 23 77.6203 23L71.0923 23C67.3376 23 65.4603 21.1227 65.4603 17.368ZM87.0985 21.08V17.976H97.0505C97.2852 17.976 97.4025 17.8587 97.4025 17.624V15.448C97.4025 15.1493 97.2745 14.9787 97.0185 14.936L91.0985 13.72C88.4318 13.208 87.0985 11.4267 87.0985 8.376V6.552C87.0985 2.79733 88.9758 0.919998 92.7305 0.919998L99.8345 0.919998L102.331 2.84V5.944H93.0185C92.7838 5.944 92.6665 6.06133 92.6665 6.296V8.344C92.6665 8.62133 92.7945 8.792 93.0505 8.856L98.9705 10.008C101.637 10.5627 102.971 12.3547 102.971 15.384V17.368C102.971 21.1227 101.093 23 97.3385 23H89.5945L87.0985 21.08ZM134.544 21.976L140.784 0.919998L149.104 0.919998L155.344 21.976L154.672 23H150L148.912 19.064L140.976 19.064L139.888 23H135.216L134.544 21.976ZM142.448 14.04H147.44L145.136 5.944H144.752L142.448 14.04ZM158.371 23V0.919998L164.835 0.919998L170.467 12.952L176.099 0.919998L182.563 0.919998V23H176.995V11.096L172.707 20.28H168.227L163.939 11.096V23L158.371 23ZM187.559 23V0.919998L203.015 0.919998V5.944L193.127 5.944V9.24H202.055V14.264H193.127V17.976H203.015V23H187.559ZM206.161 21.08V17.976L216.113 17.976C216.348 17.976 216.465 17.8587 216.465 17.624V15.448C216.465 15.1493 216.337 14.9787 216.081 14.936L210.161 13.72C207.494 13.208 206.161 11.4267 206.161 8.376V6.552C206.161 2.79733 208.038 0.919998 211.793 0.919998L218.897 0.919998L221.393 2.84V5.944L212.081 5.944C211.846 5.944 211.729 6.06133 211.729 6.296V8.344C211.729 8.62133 211.857 8.792 212.113 8.856L218.033 10.008C220.7 10.5627 222.033 12.3547 222.033 15.384V17.368C222.033 21.1227 220.156 23 216.401 23H208.657L206.161 21.08Z" fill="white"/>
  </g>
  <defs>
    <filter id="filter0_i_57_3" x="0.933502" y="0.919922" width="221.099" height="26.0801" filterUnits="userSpaceOnUse" color-interpolation-filters="sRGB">
      <feFlood flood-opacity="0" result="BackgroundImageFix"/>
      <feBlend mode="normal" in="SourceGraphic" in2="BackgroundImageFix" result="shape"/>
      <feColorMatrix in="SourceAlpha" type="matrix" values="0 0 0 0 0 0 0 0 0 0 0 0 0 0 0 0 0 0 127 0" result="hardAlpha"/>
      <feOffset dy="5"/>
      <feGaussianBlur stdDeviation="2"/>
      <feComposite in2="hardAlpha" operator="arithmetic" k2="-1" k3="1"/>
      <feColorMatrix type="matrix" values="0 0 0 0 0 0 0 0 0 0 0 0 0 0 0 0 0 0 0.2 0"/>
      <feBlend mode="normal" in2="shape" result="effect1_innerShadow_57_3"/>
    </filter>
  </defs>
</svg>
