<svg width="243" height="91" viewBox="0 0 243 91" fill="none" xmlns="http://www.w3.org/2000/svg">
<path d="M0 83.9697V69.5354C0 65.4701 1.84597 63.4375 5.53792 63.4375H16.0494L17.8483 64.9813V66.9882H5.5732C4.23281 66.9882 3.56261 67.7086 3.56261 69.1495V84.3557C3.56261 85.7965 4.23281 86.517 5.5732 86.517H14.9912V77.949H9.38272V74.3983H18.5538V90.0676H5.53792C1.84597 90.0676 0 88.035 0 83.9697Z" fill="#E0E0E0"/>
<path d="M22.6764 89.2572L30.4718 63.4375H36.1508L43.911 89.2572L43.4524 90.0676H40.4542L38.6199 83.7382H28.0027L26.1332 90.0676H23.1702L22.6764 89.2572ZM29.0256 80.1875H37.597L33.6817 66.9882H32.9409L29.0256 80.1875Z" fill="#E0E0E0"/>
<path d="M48.731 90.0676V63.4375H53.246L61.0061 81.4997L68.7663 63.4375H73.3166V90.0676H69.7187V69.767L62.6287 86.324H59.4188L52.2936 69.767V90.0676H48.731Z" fill="#E0E0E0"/>
<path d="M80.5501 90.0676V63.4375H96.6347V66.9882H84.1127V74.3983H95.5765V77.949H84.1127V86.517H96.6347V90.0676H80.5501Z" fill="#E0E0E0"/>
<path d="M101.494 88.5239V86.517H112.358C113.698 86.517 114.368 85.7965 114.368 84.3557V81.3067C114.368 80.046 113.863 79.3127 112.852 79.1068L105.48 77.4473C102.822 76.8812 101.494 74.9386 101.494 71.6195V69.5354C101.494 65.4701 103.34 63.4375 107.032 63.4375H115.427L117.226 64.9813V66.9882H107.067C105.726 66.9882 105.056 67.7086 105.056 69.1495V71.7739C105.056 73.0346 105.562 73.7679 106.573 73.9738L113.98 75.5561C116.614 76.1737 117.931 78.1291 117.931 81.4225V83.9697C117.931 88.035 116.085 90.0676 112.393 90.0676H103.293L101.494 88.5239Z" fill="#E0E0E0"/>
<path d="M132.614 88.5239V86.517H143.478C144.819 86.517 145.489 85.7965 145.489 84.3557V81.3067C145.489 80.046 144.983 79.3127 143.972 79.1068L136.6 77.4473C133.943 76.8812 132.614 74.9386 132.614 71.6195V69.5354C132.614 65.4701 134.46 63.4375 138.152 63.4375H146.547L148.346 64.9813V66.9882H138.187C136.847 66.9882 136.177 67.7086 136.177 69.1495V71.7739C136.177 73.0346 136.682 73.7679 137.693 73.9738L145.101 75.5561C147.735 76.1737 149.052 78.1291 149.052 81.4225V83.9697C149.052 88.035 147.206 90.0676 143.514 90.0676H134.413L132.614 88.5239Z" fill="#E0E0E0"/>
<path d="M153.003 66.9882V63.4375H172.404V66.9882H164.502V90.0676H160.905V66.9882H153.003Z" fill="#E0E0E0"/>
<path d="M177.048 83.9697V69.5354C177.048 65.4701 178.894 63.4375 182.585 63.4375H190.769C194.461 63.4375 196.307 65.4701 196.307 69.5354V83.9697C196.307 88.035 194.461 90.0676 190.769 90.0676H182.585C178.894 90.0676 177.048 88.035 177.048 83.9697ZM180.61 84.3557C180.61 85.7965 181.28 86.517 182.621 86.517H190.734C192.074 86.517 192.744 85.7965 192.744 84.3557V69.1495C192.744 67.7086 192.074 66.9882 190.734 66.9882H182.621C181.28 66.9882 180.61 67.7086 180.61 69.1495V84.3557Z" fill="#E0E0E0"/>
<path d="M203.226 90.0676V63.4375H214.831C218.523 63.4375 220.369 65.4701 220.369 69.5354V73.8194C220.369 77.1128 219.134 79.0425 216.665 79.6086L221.074 89.18L220.651 90.0676H217.617L212.891 79.8787H206.788V90.0676H203.226ZM206.788 76.328H214.795C216.136 76.328 216.806 75.5947 216.806 74.1281V69.1495C216.806 67.7086 216.136 66.9882 214.795 66.9882H206.788V76.328Z" fill="#E0E0E0"/>
<path d="M226.915 90.0676V63.4375H243V66.9882H230.478V74.3983H241.942V77.949H230.478V86.517H243V90.0676H226.915Z" fill="#E0E0E0"/>
<path d="M0.154053 52.4994V0H14.4582L31.882 30.4344V0H45.1209V52.4994H30.8928L13.393 22.065V52.4994H0.154053Z" fill="#C10015"/>
<path d="M56.9957 52.4994V0H93.7453V11.9455H70.2347V19.7824H91.4627V31.7279H70.2347V40.5539H93.7453V52.4994H56.9957Z" fill="#C10015"/>
<path d="M99.6289 49.9125L115.607 25.4888L100.618 2.58693L101.835 0H113.477L122.835 14.8368L132.194 0H143.835L145.052 2.58693L130.063 25.4888L146.041 49.9125L144.748 52.4994H133.183L122.835 36.217L112.487 52.4994H100.922L99.6289 49.9125Z" fill="#C10015"/>
<path d="M153.579 39.1083V0H166.818V39.7169C166.818 40.2749 167.097 40.5539 167.655 40.5539H181.807C182.365 40.5539 182.644 40.2749 182.644 39.7169V0H195.883V39.1083C195.883 48.0357 191.419 52.4994 182.491 52.4994H166.97C158.042 52.4994 153.579 48.0357 153.579 39.1083Z" fill="#C10015"/>
<path d="M205.028 47.9343V40.5539H228.691C229.249 40.5539 229.528 40.2749 229.528 39.7169V34.5431C229.528 33.833 229.223 33.4272 228.614 33.3257L214.539 30.4344C208.198 29.2171 205.028 24.9816 205.028 17.7281V13.3912C205.028 4.46372 209.492 0 218.419 0H235.31L241.245 4.56517V11.9455H219.104C218.546 11.9455 218.267 12.2245 218.267 12.7825V17.652C218.267 18.3114 218.571 18.7172 219.18 18.8694L233.256 21.6085C239.596 22.9273 242.766 27.1881 242.766 34.3909V39.1083C242.766 48.0357 238.303 52.4994 229.375 52.4994H210.962L205.028 47.9343Z" fill="#C10015"/>
</svg>
